<svg width="111" height="48" viewBox="0 0 111 48" fill="none" xmlns="http://www.w3.org/2000/svg">
<rect x="0.0751953" width="110.85" height="48" rx="24" fill="#E6FFDA"/>
<path d="M42.9252 23.9899C42.9252 24.2899 42.8052 24.5599 42.6152 24.7499L42.5952 24.7699L42.2852 25.0799L41.8352 25.5299L40.7452 26.6199L39.1252 28.2399C39.1252 28.2399 39.0652 28.2999 39.0352 28.3299L33.0152 34.3499L31.4752 32.8099L37.4752 26.8099C37.4752 26.8099 37.5652 26.7299 37.6052 26.6799C37.7452 26.5099 37.8252 26.2999 37.8252 26.0599C37.8252 25.5199 37.3852 25.0899 36.8552 25.0899H28.0752V22.9099H36.8552C37.3952 22.9099 37.8252 22.4699 37.8252 21.9399C37.8252 21.6999 37.7452 21.4899 37.6052 21.3199C37.5652 21.2699 37.5252 21.2299 37.4752 21.1899L31.4752 15.1899L33.0152 13.6499L39.0352 19.6699C39.0352 19.6699 39.0952 19.7299 39.1252 19.7599L40.7452 21.3799L41.8352 22.4699L42.2852 22.9199L42.5952 23.2299L42.6152 23.2499C42.8052 23.4499 42.9252 23.7099 42.9252 24.0099V23.9899Z" fill="#238E52"/>
<rect x="66.9253" y="4" width="40" height="40" rx="20" fill="#238E52"/>
<path d="M97.1853 17.54L96.6353 18.09L87.2153 27.51L87.1253 27.6L85.5053 29.22L84.4153 30.31L83.9653 30.76L83.6653 31.06L83.6253 31.1C83.4253 31.29 83.1653 31.4 82.8753 31.4C82.5853 31.4 82.3153 31.29 82.1253 31.1L76.9253 25.9L78.4653 24.36L80.0753 25.97L82.8753 28.77L95.6453 16C95.8453 16.18 96.0453 16.36 96.2353 16.55C96.3653 16.68 96.4953 16.81 96.6253 16.94C96.8153 17.13 96.9953 17.33 97.1753 17.53L97.1853 17.54Z" fill="#E6FFDA"/>
</svg>
