<svg width="284" height="57" viewBox="0 0 284 57" fill="none" xmlns="http://www.w3.org/2000/svg">
<path d="M21.5829 28.4958C21.5829 28.9273 21.412 29.317 21.1327 29.6026C21.1244 29.613 21.116 29.6214 21.1056 29.6297L20.6554 30.0799L19.9989 30.7365L18.415 32.3207L16.0746 34.6615C16.0204 34.7053 15.9725 34.7553 15.9266 34.8095L6.97963 43.7579L4.73714 41.5151L13.6633 32.5875C13.7321 32.5312 13.7967 32.4666 13.855 32.3957C14.0572 32.1519 14.1781 31.8371 14.1781 31.4953C14.1781 30.7115 13.5424 30.0779 12.7609 30.0779H0V26.9095H12.7609C13.5424 26.9095 14.1781 26.2738 14.1781 25.49C14.1781 25.1545 14.0614 24.846 13.8655 24.6021C13.8009 24.5229 13.7279 24.4499 13.6487 24.3853L4.73506 15.4702L6.97754 13.2295L15.9308 22.1842C15.9725 22.2321 16.0183 22.278 16.0642 22.3176L18.413 24.6667L19.9969 26.2509L20.6534 26.9075L21.0639 27.3181C21.0639 27.3181 21.0827 27.3348 21.0931 27.3452L21.1473 27.3994C21.1473 27.3994 21.164 27.416 21.1723 27.4265C21.4286 27.7079 21.5829 28.0831 21.5829 28.4916V28.4958Z" fill="#111B21"/>
<path d="M25.8262 31.4974C25.8262 31.858 25.9596 32.1894 26.1847 32.4396C26.1888 32.4437 26.1909 32.4479 26.1951 32.45C26.2263 32.4854 26.2576 32.5167 26.2909 32.5459C26.2951 32.55 26.2993 32.5521 26.3014 32.5563L35.2629 41.5193L33.0226 43.7621L24.0797 34.8179C24.0318 34.7616 23.9818 34.7095 23.9255 34.6636C23.6775 34.451 23.3545 34.3218 23.0022 34.3218C22.2457 34.3218 21.6247 34.9179 21.5871 35.6662C21.5871 35.6892 21.5871 35.7142 21.5871 35.7392C21.5871 35.7642 21.5871 35.7871 21.5871 35.8121V48.5H18.4193V35.8121C18.4193 35.7892 18.4193 35.7642 18.4193 35.7392C18.4193 35.7163 18.4193 35.6913 18.4193 35.6662C18.3818 34.9179 17.7628 34.3218 17.0042 34.3218C16.652 34.3218 16.3269 34.451 16.0789 34.6678L18.4193 32.327L20.6618 30.0842L21.112 29.6339C21.112 29.6339 21.1307 29.6173 21.1391 29.6068C21.4204 29.3213 21.5892 28.9294 21.5892 28.5C21.5892 28.0706 21.435 27.7163 21.1787 27.4349C21.1703 27.4244 21.162 27.4161 21.1537 27.4078L21.0995 27.3536C21.0995 27.3536 21.0807 27.3348 21.0703 27.3265L20.6597 26.9158L20.0032 26.2593L16.0706 22.326C16.3206 22.5427 16.6478 22.6761 17.0042 22.6761C17.7628 22.6761 18.3818 22.0821 18.4193 21.3317C18.4193 21.3088 18.4193 21.2837 18.4193 21.2587C18.4193 21.2337 18.4193 21.2108 18.4193 21.1858V8.5H21.5871V21.1858C21.5871 21.2087 21.5871 21.2337 21.5871 21.2587C21.5871 21.2837 21.5871 21.3067 21.5871 21.3317C21.6247 22.0821 22.2457 22.6761 23.0022 22.6761C23.3545 22.6761 23.6775 22.5469 23.9255 22.3364C23.9818 22.2884 24.0318 22.2363 24.0797 22.1821L33.0226 13.2379L35.2629 15.4807L26.3264 24.4187C26.268 24.4687 26.2138 24.5229 26.1659 24.5792C25.9554 24.8273 25.8283 25.1483 25.8283 25.4984C25.8283 26.2822 26.4618 26.9179 27.2455 26.9179H40.0001V30.0862H27.2455C26.4618 30.0862 25.8283 30.7199 25.8283 31.5037L25.8262 31.4974Z" fill="#238E52"/>
<path d="M62 55.8385V0.0803833H68.9168V55.8385H62Z" fill="#238E52"/>
<path d="M94.7947 57C91.5309 57 88.5389 56.4835 85.8187 55.4506C83.0985 54.4176 80.7675 52.9348 78.8258 50.9975C76.8841 49.0624 75.3801 46.7372 74.3183 44.0286C73.2564 41.3177 72.7244 38.2579 72.7244 34.8514C72.7244 31.445 73.2403 28.6171 74.2791 25.9062C75.3156 23.1953 76.7782 20.8723 78.6692 18.9373C80.5602 17.0022 82.8658 15.5033 85.586 14.4451C88.3062 13.3869 91.3743 12.8567 94.7947 12.8567C98.2151 12.8567 101.115 13.3594 103.81 14.3671C106.502 15.3748 108.822 16.8209 110.766 18.7031C112.707 20.5877 114.212 22.8992 115.273 25.6353C116.335 28.3715 116.867 31.4427 116.867 34.8514C116.867 38.2602 116.363 41.1639 115.352 43.8748C114.341 46.5857 112.889 48.9086 111.001 50.8437C109.11 52.7787 106.79 54.2891 104.045 55.3748C101.297 56.4583 98.2174 57 94.797 57H94.7947ZM94.7947 51.0365C97.2293 51.0365 99.3667 50.6486 101.205 49.875C103.043 49.1014 104.572 47.9905 105.791 46.5443C107.007 45.1005 107.928 43.3835 108.55 41.3934C109.172 39.4056 109.483 37.2249 109.483 34.8491C109.483 29.9966 108.304 26.1105 105.947 23.193C103.589 20.2778 99.8735 18.8179 94.797 18.8179C89.7205 18.8179 86.2609 20.2778 83.801 23.193C81.3387 26.1105 80.1088 29.9966 80.1088 34.8491C80.1088 37.1216 80.4059 39.2518 81.0025 41.2373C81.5967 43.2252 82.4904 44.9421 83.6835 46.3883C84.8743 47.8344 86.3899 48.9706 88.2302 49.797C90.0683 50.6233 92.2587 51.0365 94.797 51.0365H94.7947Z" fill="#238E52"/>
<path d="M140.174 57C136.911 57 133.919 56.4835 131.198 55.4506C128.478 54.4176 126.147 52.9348 124.205 50.9975C122.264 49.0624 120.76 46.7372 119.698 44.0286C118.636 41.3177 118.104 38.2579 118.104 34.8514C118.104 31.445 118.62 28.6171 119.659 25.9062C120.695 23.1953 122.158 20.8723 124.049 18.9373C125.94 17.0022 128.245 15.5033 130.966 14.4451C133.686 13.3869 136.754 12.8567 140.174 12.8567C143.595 12.8567 146.495 13.3594 149.189 14.3671C151.882 15.3748 154.201 16.8209 156.145 18.7031C158.087 20.5877 159.591 22.8992 160.653 25.6353C161.715 28.3715 162.247 31.4427 162.247 34.8514C162.247 38.2602 161.743 41.1639 160.731 43.8748C159.72 46.5857 158.269 48.9086 156.38 50.8437C154.489 52.7787 152.17 54.2891 149.424 55.3748C146.677 56.4583 143.597 57 140.177 57H140.174ZM140.174 51.0365C142.609 51.0365 144.746 50.6486 146.584 49.875C148.422 49.1014 149.952 47.9905 151.17 46.5443C152.386 45.1005 153.308 43.3835 153.93 41.3934C154.552 39.4056 154.863 37.2249 154.863 34.8491C154.863 29.9966 153.683 26.1105 151.327 23.193C148.968 20.2778 145.253 18.8179 140.177 18.8179C135.1 18.8179 131.641 20.2778 129.181 23.193C126.718 26.1105 125.488 29.9966 125.488 34.8491C125.488 37.1216 125.786 39.2518 126.382 41.2373C126.976 43.2252 127.87 44.9421 129.063 46.3883C130.254 47.8344 131.77 48.9706 133.61 49.797C135.448 50.6233 137.638 51.0365 140.177 51.0365H140.174Z" fill="#238E52"/>
<path d="M212.754 13.9402C213.998 13.9402 215.332 14.1077 216.757 14.4429C218.181 14.7803 219.542 15.283 220.836 15.9532C222.131 16.6258 223.296 17.4246 224.333 18.3543C225.369 19.2839 226.146 20.3674 226.664 21.6069C226.767 21.8663 226.883 22.1486 227.014 22.4585C227.143 22.7684 227.258 23.053 227.364 23.3101C227.779 24.6001 228.011 25.8924 228.064 27.1825C228.115 28.4725 228.143 29.7901 228.143 31.1329V55.8363H221.226V29.5054C221.226 29.1451 221.173 28.7066 221.069 28.1879C220.965 27.311 220.836 26.5375 220.68 25.8649C220.523 25.1946 220.187 24.4716 219.669 23.6957C218.529 22.3529 217.271 21.3337 215.9 20.6359C214.528 19.9381 212.934 19.5915 211.121 19.5915C207.857 19.5915 205.28 20.5212 203.389 22.3804C201.498 24.2397 200.553 26.8221 200.553 30.1252V31.1329L200.475 55.8363H193.637V31.1329C193.637 29.0165 193.482 27.2605 193.171 25.8672C192.706 24.3706 191.849 23.131 190.608 22.1509C189.364 21.1708 187.991 20.4477 186.49 19.9817C185.349 19.7246 184.338 19.5938 183.458 19.5938C180.195 19.5938 177.642 20.5372 175.804 22.4195C173.964 24.304 173.045 26.8726 173.045 30.1252V55.8363H166.052V14.0159H173.045V18.43C173.821 17.4499 174.664 16.6625 175.57 16.068C176.475 15.4758 177.447 15.0236 178.483 14.7114C179.52 14.4015 180.593 14.1973 181.708 14.0917C182.82 13.9884 183.974 13.9379 185.165 13.9379C187.964 13.9379 190.553 14.5324 192.936 15.7191C195.318 16.9081 197.262 18.7146 198.764 21.1409L199.075 20.6772C199.125 20.5739 199.178 20.4844 199.231 20.4064C199.282 20.3283 199.36 20.2388 199.464 20.1355C201.019 18.0719 202.986 16.5225 205.37 15.4896C207.751 14.4566 210.214 13.9402 212.752 13.9402H212.754Z" fill="#238E52"/>
<path d="M237.155 7.59097C236.015 7.59097 235.057 7.20305 234.281 6.42949C233.399 5.70643 232.959 4.82958 232.959 3.79663C232.959 2.6099 233.387 1.68025 234.242 1.00769C235.096 0.337431 236.068 0 237.155 0C238.243 0 239.226 0.362677 240.108 1.08344C240.884 1.90979 241.274 2.81419 241.274 3.79434C241.274 4.93057 240.859 5.84645 240.03 6.54426C239.201 7.24207 238.243 7.58867 237.155 7.58867V7.59097ZM240.573 14.0182V55.8385H233.657V14.0182H240.573Z" fill="#238E52"/>
<path d="M277.019 26.4869C275.878 23.597 274.13 21.6068 271.774 20.5234C269.415 19.44 266.762 18.8982 263.809 18.8982C262.98 18.8982 261.969 18.9763 260.778 19.1301C260.103 19.2839 259.366 19.479 258.562 19.7108C257.758 19.9427 257.033 20.2663 256.386 20.6795C255.736 21.0927 255.192 21.5977 254.752 22.1899C254.313 22.7844 254.091 23.5189 254.091 24.3981C254.091 25.2772 254.324 26.0232 254.792 26.643C255.257 27.3156 255.853 27.8573 256.579 28.2705C257.252 28.7341 258.028 29.0968 258.91 29.3539C259.117 29.4067 259.325 29.4572 259.532 29.51C259.739 29.5628 259.946 29.6133 260.154 29.6638C260.619 29.8704 261.034 30.0012 261.398 30.0517C262.123 30.2583 262.846 30.4534 263.574 30.6324C264.3 30.8138 265.023 31.0066 265.751 31.2132C266.476 31.4198 267.213 31.6011 267.967 31.7549C268.717 31.911 269.454 32.0648 270.182 32.2186C271.788 32.6318 273.354 33.123 274.883 33.69C276.41 34.2592 277.848 35.058 279.195 36.091C282.77 38.6205 284.35 41.7446 283.935 45.4609C283.728 47.7839 282.989 49.6822 281.72 51.1535C280.45 52.6249 278.923 53.7864 277.134 54.638C275.346 55.4896 273.391 56.0818 271.267 56.4193C269.144 56.7544 267.096 56.922 265.129 56.922C262.641 56.922 260.285 56.6511 258.058 56.1094C255.83 55.5677 253.836 54.6908 252.074 53.4765C250.312 52.2645 248.81 50.7266 247.566 48.8696C246.322 47.0103 245.415 44.7654 244.846 42.1325L251.53 40.6612C251.788 42.4699 252.306 44.0171 253.085 45.3071C253.861 46.5971 254.845 47.6691 256.038 48.5207C257.229 49.3723 258.59 49.9921 260.117 50.38C261.644 50.7679 263.289 50.9607 265.051 50.9607C266.138 50.9607 267.329 50.8827 268.625 50.7289C269.92 50.5751 271.152 50.2767 272.318 49.8383C273.483 49.3998 274.494 48.7939 275.349 48.018C276.203 47.2444 276.708 46.2115 276.864 44.9215C277.021 43.2688 276.371 41.8754 274.923 40.7392C274.248 40.1722 273.564 39.7315 272.863 39.4216C272.163 39.1118 271.399 38.8294 270.572 38.57C270.208 38.4667 269.835 38.3634 269.445 38.2601C269.056 38.1569 268.655 38.0536 268.241 37.9503C267.98 37.847 267.697 37.7712 267.386 37.7184C267.075 37.6679 266.764 37.5899 266.453 37.4866L264.588 37.0229C263.811 36.8163 263.033 36.6097 262.257 36.4031C261.48 36.1966 260.727 35.99 260.004 35.7834C258.657 35.423 257.309 35.0351 255.964 34.6219C254.617 34.2087 253.347 33.6418 252.157 32.9187C251.12 32.3517 250.215 31.6539 249.436 30.8276C248.66 30.0012 248.064 29.0463 247.649 27.9629C247.184 26.9299 246.949 25.7684 246.949 24.4784C246.949 22.828 247.31 21.3543 248.036 20.0643C248.762 18.7743 249.706 17.6518 250.871 16.6946C252.037 15.7397 253.359 14.9662 254.835 14.3717C256.312 13.7794 257.774 13.3777 259.226 13.1712L261.556 12.9393C261.971 12.8888 262.358 12.8613 262.722 12.8613H263.809C267.124 12.8613 270.219 13.3777 273.096 14.4107C275.971 15.4436 278.576 17.1996 280.907 19.6764C281.579 20.5027 282.15 21.3543 282.616 22.2312C283.081 23.1103 283.495 24.04 283.859 25.0201L277.021 26.4915L277.019 26.4869Z" fill="#238E52"/>
</svg>

