<svg width="28" height="34" viewBox="0 0 28 34" fill="none" xmlns="http://www.w3.org/2000/svg">
<path d="M16.8571 25.0645C16.8571 25.3217 16.7571 25.536 16.5856 25.6931L16.3142 25.9788L15.9571 26.336L15.0428 27.2503L13.7 28.5788C13.7 28.5788 13.6571 28.6217 13.6428 28.6645L8.6428 33.6645L7.35709 32.3788L12.3428 27.3931C12.3428 27.3931 12.4285 27.336 12.4571 27.2788C12.5714 27.136 12.6285 26.9645 12.6285 26.7788C12.6285 26.336 12.2571 25.9788 11.8142 25.9788H10.2999C6.19994 25.8074 2.69994 23.2788 1.1428 19.7074C0.72851 18.7503 0.4428 17.7074 0.3428 16.6217C0.299942 16.2645 0.285645 15.9074 0.285645 15.5503C0.285645 14.5645 0.42853 13.6217 0.671387 12.7217H2.58567C2.27138 13.6074 2.11421 14.5645 2.11421 15.5503C2.11421 20.3074 5.9714 24.1645 10.7285 24.1645H11.8285C12 24.1645 12.1571 24.1074 12.2857 24.0217C12.5 23.8788 12.6428 23.636 12.6428 23.3502C12.6428 23.1645 12.5856 22.9645 12.4714 22.8217C12.4428 22.7931 12.3857 22.7645 12.3571 22.7074L7.37139 17.7217L8.6571 16.4503L13.6571 21.4502C13.6571 21.4502 13.7 21.4931 13.7143 21.5074L15.0571 22.8503L15.1285 22.9217L15.9714 23.7502L16.3285 24.136L16.4571 24.2503L16.5999 24.3931C16.7714 24.5788 16.8714 24.8074 16.8714 25.036L16.8571 25.0645Z" fill="#F9F9FA"/>
<path d="M11.1427 8.93594C11.1427 8.67879 11.2427 8.46451 11.4141 8.30737L11.6855 8.02165L12.0427 7.66451L12.957 6.75023L14.2998 5.42165C14.2998 5.42165 14.3427 5.37879 14.357 5.33594L19.357 0.335938L20.6427 1.62165L15.657 6.60737C15.657 6.60737 15.5713 6.66451 15.5427 6.72165C15.4284 6.86451 15.3713 7.03594 15.3713 7.22166C15.3713 7.66451 15.7427 8.02165 16.1855 8.02165H17.6998C21.7998 8.19308 25.2998 10.7217 26.857 14.2931C27.2712 15.2502 27.557 16.2931 27.657 17.3788C27.6998 17.7359 27.7141 18.0931 27.7141 18.4502C27.7141 19.4359 27.5713 20.3788 27.3284 21.2788H25.4141C25.7284 20.3931 25.8855 19.4359 25.8855 18.4502C25.8855 13.6931 22.0284 9.83594 17.2713 9.83594H16.1713C15.9998 9.83594 15.8427 9.89308 15.7141 9.97879C15.4998 10.1217 15.357 10.3645 15.357 10.6502C15.357 10.8359 15.4141 11.0359 15.5284 11.1788C15.557 11.2074 15.6141 11.2359 15.6427 11.2931L20.6284 16.2788L19.3427 17.5502L14.3427 12.5502C14.3427 12.5502 14.2998 12.5074 14.2855 12.4931L12.9427 11.1502L12.8713 11.0788L12.0284 10.2502L11.6712 9.86451L11.5427 9.75022L11.3998 9.60737C11.2284 9.42165 11.1284 9.19308 11.1284 8.96451L11.1427 8.93594Z" fill="#F9F9FA"/>
</svg>
