<svg width="40" height="40" viewBox="0 0 40 40" fill="none" xmlns="http://www.w3.org/2000/svg">
<path d="M21.5829 19.9958C21.5829 20.4273 21.412 20.817 21.1327 21.1026C21.1244 21.113 21.116 21.1214 21.1056 21.1297L20.6554 21.5799L19.9989 22.2365L18.415 23.8207L16.0746 26.1615C16.0204 26.2053 15.9725 26.2553 15.9266 26.3095L6.97963 35.2579L4.73714 33.0151L13.6633 24.0875C13.7321 24.0312 13.7967 23.9666 13.855 23.8957C14.0572 23.6519 14.1781 23.3371 14.1781 22.9953C14.1781 22.2115 13.5424 21.5779 12.7609 21.5779H0V18.4095H12.7609C13.5424 18.4095 14.1781 17.7738 14.1781 16.99C14.1781 16.6545 14.0614 16.346 13.8655 16.1021C13.8009 16.0229 13.7279 15.9499 13.6487 15.8853L4.73506 6.97024L6.97754 4.72949L15.9308 13.6842C15.9725 13.7321 16.0183 13.778 16.0642 13.8176L18.413 16.1667L19.9969 17.7509L20.6534 18.4075L21.0639 18.8181C21.0639 18.8181 21.0827 18.8348 21.0931 18.8452L21.1473 18.8994C21.1473 18.8994 21.164 18.916 21.1723 18.9265C21.4286 19.2079 21.5829 19.5831 21.5829 19.9916V19.9958Z" fill="#111B21"/>
<path d="M25.8262 22.9974C25.8262 23.358 25.9596 23.6894 26.1847 23.9396C26.1888 23.9437 26.1909 23.9479 26.1951 23.95C26.2263 23.9854 26.2576 24.0167 26.2909 24.0459C26.2951 24.05 26.2993 24.0521 26.3014 24.0563L35.2629 33.0193L33.0226 35.2621L24.0797 26.3179C24.0318 26.2616 23.9818 26.2095 23.9255 26.1636C23.6775 25.951 23.3545 25.8218 23.0022 25.8218C22.2457 25.8218 21.6247 26.4179 21.5871 27.1662C21.5871 27.1892 21.5871 27.2142 21.5871 27.2392C21.5871 27.2642 21.5871 27.2871 21.5871 27.3121V40H18.4193V27.3121C18.4193 27.2892 18.4193 27.2642 18.4193 27.2392C18.4193 27.2163 18.4193 27.1913 18.4193 27.1662C18.3818 26.4179 17.7628 25.8218 17.0042 25.8218C16.652 25.8218 16.3269 25.951 16.0789 26.1678L18.4193 23.827L20.6618 21.5842L21.112 21.1339C21.112 21.1339 21.1307 21.1173 21.1391 21.1068C21.4204 20.8213 21.5892 20.4294 21.5892 20C21.5892 19.5706 21.435 19.2163 21.1787 18.9349C21.1703 18.9244 21.162 18.9161 21.1537 18.9078L21.0995 18.8536C21.0995 18.8536 21.0807 18.8348 21.0703 18.8265L20.6597 18.4158L20.0032 17.7593L16.0706 13.826C16.3206 14.0427 16.6478 14.1761 17.0042 14.1761C17.7628 14.1761 18.3818 13.5821 18.4193 12.8317C18.4193 12.8088 18.4193 12.7837 18.4193 12.7587C18.4193 12.7337 18.4193 12.7108 18.4193 12.6858V0H21.5871V12.6858C21.5871 12.7087 21.5871 12.7337 21.5871 12.7587C21.5871 12.7837 21.5871 12.8067 21.5871 12.8317C21.6247 13.5821 22.2457 14.1761 23.0022 14.1761C23.3545 14.1761 23.6775 14.0469 23.9255 13.8364C23.9818 13.7884 24.0318 13.7363 24.0797 13.6821L33.0226 4.73788L35.2629 6.98072L26.3264 15.9187C26.268 15.9687 26.2138 16.0229 26.1659 16.0792C25.9554 16.3273 25.8283 16.6483 25.8283 16.9984C25.8283 17.7822 26.4618 18.4179 27.2455 18.4179H40.0001V21.5862H27.2455C26.4618 21.5862 25.8283 22.2199 25.8283 23.0037L25.8262 22.9974Z" fill="#238E52"/>
</svg>
